# xmcd CD database file
#
# Track frame offsets:
#	150
#	19837
#	35555
#	58920
#	79162
#	90987
#	110237
#	132600
#	152565
#	174910
#
# Disc length: 2422 seconds
#
# Revision: 2
# Processed by: cddbd v1.5.2PL0 Copyright (c) Steve Scherf et al.
# Submitted via: CDex 1.60beta1-cs1
#
DISCID=8009740a
DTITLE=NIAGARA FALL OF SOUND ORCHESTRAL - NIAGARA SONG BOOK 2
DYEAR=1984
DGENRE=Pop
TTITLE0=夏のペーパーバック
TTITLE1=恋のナックルボール
TTITLE2=ペパーミント・ブルー
TTITLE3=木の葉のスケッチ
TTITLE4=真夏の昼の夢
TTITLE5=魔法の瞳
TTITLE6=ガラス壜の中の船
TTITLE7=銀色のジェット
TTITLE8=レイクサイド ストーリー
TTITLE9=夏のペーパーバック(Reprise)
EXTD=YEAR: 1984
EXTT0=
EXTT1=
EXTT2=
EXTT3=
EXTT4=
EXTT5=
EXTT6=
EXTT7=
EXTT8=
EXTT9=
PLAYORDER=
